<svg xmlns="http://www.w3.org/2000/svg" xmlns:xlink="http://www.w3.org/1999/xlink" width="561" zoomAndPan="magnify" viewBox="0 0 420.75 106.499997" height="142" preserveAspectRatio="xMidYMid meet" version="1.0"><defs><g/><clipPath id="6e2128e2ff"><path d="M 3.96875 3.664062 L 102.507812 3.664062 L 102.507812 102.203125 L 3.96875 102.203125 Z M 3.96875 3.664062 " clip-rule="nonzero"/></clipPath></defs><g clip-path="url(#6e2128e2ff)"><path fill="#5a67d8" d="M 102.632812 52.996094 C 102.632812 54.613281 102.554688 56.222656 102.398438 57.832031 C 102.238281 59.441406 102.003906 61.035156 101.6875 62.621094 C 101.371094 64.207031 100.980469 65.769531 100.511719 67.316406 C 100.042969 68.863281 99.496094 70.382812 98.878906 71.875 C 98.261719 73.367188 97.570312 74.828125 96.808594 76.253906 C 96.046875 77.675781 95.21875 79.0625 94.320312 80.40625 C 93.421875 81.75 92.460938 83.042969 91.4375 84.292969 C 90.410156 85.542969 89.328125 86.738281 88.183594 87.878906 C 87.042969 89.023438 85.847656 90.105469 84.597656 91.132812 C 83.347656 92.15625 82.054688 93.117188 80.710938 94.015625 C 79.367188 94.914062 77.980469 95.742188 76.558594 96.503906 C 75.132812 97.265625 73.671875 97.957031 72.179688 98.574219 C 70.6875 99.191406 69.167969 99.738281 67.621094 100.207031 C 66.078125 100.675781 64.511719 101.066406 62.925781 101.382812 C 61.339844 101.695312 59.746094 101.933594 58.136719 102.09375 C 56.53125 102.25 54.917969 102.328125 53.300781 102.328125 C 51.6875 102.328125 50.074219 102.25 48.464844 102.09375 C 46.859375 101.933594 45.261719 101.695312 43.675781 101.382812 C 42.09375 101.066406 40.527344 100.675781 38.980469 100.207031 C 37.433594 99.738281 35.914062 99.191406 34.421875 98.574219 C 32.929688 97.957031 31.472656 97.265625 30.046875 96.503906 C 28.621094 95.742188 27.238281 94.914062 25.894531 94.015625 C 24.550781 93.117188 23.253906 92.15625 22.003906 91.132812 C 20.757812 90.105469 19.5625 89.023438 18.417969 87.878906 C 17.277344 86.738281 16.191406 85.542969 15.167969 84.292969 C 14.140625 83.042969 13.179688 81.75 12.28125 80.40625 C 11.386719 79.0625 10.554688 77.675781 9.792969 76.253906 C 9.03125 74.828125 8.34375 73.367188 7.722656 71.875 C 7.105469 70.382812 6.5625 68.863281 6.09375 67.316406 C 5.625 65.769531 5.230469 64.207031 4.917969 62.621094 C 4.601562 61.035156 4.363281 59.441406 4.207031 57.832031 C 4.046875 56.222656 3.96875 54.613281 3.96875 52.996094 C 3.96875 51.382812 4.046875 49.769531 4.207031 48.160156 C 4.363281 46.554688 4.601562 44.957031 4.917969 43.371094 C 5.230469 41.789062 5.625 40.222656 6.09375 38.675781 C 6.5625 37.128906 7.105469 35.609375 7.722656 34.117188 C 8.34375 32.625 9.03125 31.167969 9.792969 29.742188 C 10.554688 28.316406 11.386719 26.933594 12.28125 25.589844 C 13.179688 24.246094 14.140625 22.949219 15.167969 21.699219 C 16.191406 20.453125 17.277344 19.253906 18.417969 18.113281 C 19.5625 16.972656 20.757812 15.886719 22.003906 14.863281 C 23.253906 13.835938 24.550781 12.875 25.894531 11.976562 C 27.238281 11.082031 28.621094 10.25 30.046875 9.488281 C 31.472656 8.726562 32.929688 8.039062 34.421875 7.417969 C 35.914062 6.800781 37.433594 6.257812 38.980469 5.789062 C 40.527344 5.320312 42.09375 4.925781 43.675781 4.613281 C 45.261719 4.296875 46.859375 4.058594 48.464844 3.902344 C 50.074219 3.742188 51.6875 3.664062 53.300781 3.664062 C 54.917969 3.664062 56.53125 3.742188 58.136719 3.902344 C 59.746094 4.058594 61.339844 4.296875 62.925781 4.613281 C 64.511719 4.925781 66.078125 5.320312 67.621094 5.789062 C 69.167969 6.257812 70.6875 6.800781 72.179688 7.417969 C 73.671875 8.039062 75.132812 8.726562 76.558594 9.488281 C 77.980469 10.25 79.367188 11.082031 80.710938 11.976562 C 82.054688 12.875 83.347656 13.835938 84.597656 14.863281 C 85.847656 15.886719 87.042969 16.972656 88.183594 18.113281 C 89.328125 19.253906 90.410156 20.453125 91.4375 21.699219 C 92.460938 22.949219 93.421875 24.246094 94.320312 25.589844 C 95.21875 26.933594 96.046875 28.316406 96.808594 29.742188 C 97.570312 31.167969 98.261719 32.625 98.878906 34.117188 C 99.496094 35.609375 100.042969 37.128906 100.511719 38.675781 C 100.980469 40.222656 101.371094 41.789062 101.6875 43.371094 C 102.003906 44.957031 102.238281 46.554688 102.398438 48.160156 C 102.554688 49.769531 102.632812 51.382812 102.632812 52.996094 Z M 102.632812 52.996094 " fill-opacity="1" fill-rule="nonzero"/></g><path fill="#ffffff" d="M 35.957031 27.117188 L 71.355469 27.117188 C 72.652344 27.117188 73.832031 27.644531 74.683594 28.5 C 75.539062 29.355469 76.070312 30.53125 76.070312 31.828125 L 76.070312 71.191406 C 76.070312 72.488281 75.539062 73.667969 74.683594 74.519531 C 73.832031 75.375 72.652344 75.90625 71.355469 75.90625 L 35.957031 75.90625 C 34.660156 75.90625 33.484375 75.375 32.628906 74.519531 C 31.773438 73.667969 31.246094 72.488281 31.246094 71.191406 L 31.246094 31.828125 C 31.246094 30.53125 31.773438 29.355469 32.628906 28.5 C 33.484375 27.644531 34.660156 27.117188 35.957031 27.117188 Z M 71.355469 28.613281 L 35.957031 28.613281 C 35.074219 28.613281 34.273438 28.976562 33.6875 29.558594 C 33.105469 30.140625 32.742188 30.945312 32.742188 31.828125 L 32.742188 71.191406 C 32.742188 72.074219 33.105469 72.878906 33.6875 73.460938 C 34.273438 74.042969 35.074219 74.40625 35.957031 74.40625 L 71.355469 74.40625 C 72.238281 74.40625 73.042969 74.042969 73.625 73.460938 C 74.207031 72.878906 74.570312 72.074219 74.570312 71.191406 L 74.570312 31.828125 C 74.570312 30.945312 74.207031 30.140625 73.625 29.558594 C 73.042969 28.976562 72.238281 28.613281 71.355469 28.613281 Z M 71.355469 28.613281 " fill-opacity="1" fill-rule="nonzero"/><path fill="#ffffff" d="M 75.335938 30.128906 C 76.492188 30.273438 77.523438 30.839844 78.265625 31.671875 C 79.011719 32.507812 79.46875 33.605469 79.46875 34.804688 L 79.46875 74.164062 C 79.46875 75.460938 78.9375 76.640625 78.082031 77.492188 C 77.230469 78.347656 76.050781 78.878906 74.753906 78.878906 L 39.355469 78.878906 C 38.273438 78.878906 37.269531 78.503906 36.46875 77.878906 C 35.652344 77.242188 35.046875 76.34375 34.785156 75.3125 C 34.683594 74.910156 34.925781 74.503906 35.328125 74.402344 C 35.433594 74.375 35.539062 74.375 35.640625 74.390625 C 35.6875 74.394531 35.734375 74.398438 35.777344 74.402344 C 35.816406 74.40625 35.878906 74.40625 35.957031 74.40625 L 71.355469 74.40625 C 72.238281 74.40625 73.042969 74.042969 73.625 73.460938 C 74.207031 72.878906 74.570312 72.074219 74.570312 71.191406 L 74.570312 31.828125 C 74.570312 31.695312 74.5625 31.5625 74.546875 31.433594 C 74.53125 31.300781 74.503906 31.171875 74.472656 31.046875 C 74.371094 30.648438 74.613281 30.238281 75.015625 30.136719 C 75.125 30.109375 75.234375 30.109375 75.335938 30.128906 Z M 77.152344 32.664062 C 76.851562 32.328125 76.484375 32.058594 76.070312 31.871094 L 76.070312 71.191406 C 76.070312 72.488281 75.539062 73.667969 74.683594 74.519531 C 73.832031 75.375 72.652344 75.90625 71.355469 75.90625 L 36.65625 75.90625 C 36.851562 76.210938 37.101562 76.480469 37.386719 76.703125 C 37.929688 77.125 38.613281 77.378906 39.355469 77.378906 L 74.753906 77.378906 C 75.636719 77.378906 76.441406 77.015625 77.023438 76.433594 C 77.605469 75.851562 77.96875 75.046875 77.96875 74.164062 L 77.96875 34.804688 C 77.96875 33.984375 77.660156 33.234375 77.152344 32.664062 Z M 77.152344 32.664062 " fill-opacity="1" fill-rule="nonzero"/><path fill="#ffffff" d="M 49.316406 36.0625 C 48.902344 36.0625 48.566406 36.398438 48.566406 36.8125 C 48.566406 37.226562 48.902344 37.5625 49.316406 37.5625 L 71.402344 37.5625 C 71.816406 37.5625 72.152344 37.226562 72.152344 36.8125 C 72.152344 36.398438 71.816406 36.0625 71.402344 36.0625 Z M 49.316406 36.0625 " fill-opacity="1" fill-rule="nonzero"/><path fill="#ffffff" d="M 49.316406 43.425781 C 48.902344 43.425781 48.566406 43.761719 48.566406 44.175781 C 48.566406 44.589844 48.902344 44.925781 49.316406 44.925781 L 71.402344 44.925781 C 71.816406 44.925781 72.152344 44.589844 72.152344 44.175781 C 72.152344 43.761719 71.816406 43.425781 71.402344 43.425781 Z M 49.316406 43.425781 " fill-opacity="1" fill-rule="nonzero"/><path fill="#ffffff" d="M 49.316406 50.789062 C 48.902344 50.789062 48.566406 51.125 48.566406 51.539062 C 48.566406 51.953125 48.902344 52.289062 49.316406 52.289062 L 71.402344 52.289062 C 71.816406 52.289062 72.152344 51.953125 72.152344 51.539062 C 72.152344 51.125 71.816406 50.789062 71.402344 50.789062 Z M 49.316406 50.789062 " fill-opacity="1" fill-rule="nonzero"/><path fill="#ffffff" d="M 49.316406 58.152344 C 48.902344 58.152344 48.566406 58.488281 48.566406 58.902344 C 48.566406 59.316406 48.902344 59.652344 49.316406 59.652344 L 71.402344 59.652344 C 71.816406 59.652344 72.152344 59.316406 72.152344 58.902344 C 72.152344 58.488281 71.816406 58.152344 71.402344 58.152344 Z M 49.316406 58.152344 " fill-opacity="1" fill-rule="nonzero"/><path fill="#ffffff" d="M 49.316406 65.515625 C 48.902344 65.515625 48.566406 65.851562 48.566406 66.265625 C 48.566406 66.679688 48.902344 67.011719 49.316406 67.011719 L 71.402344 67.011719 C 71.816406 67.011719 72.152344 66.679688 72.152344 66.265625 C 72.152344 65.851562 71.816406 65.515625 71.402344 65.515625 Z M 49.316406 65.515625 " fill-opacity="1" fill-rule="nonzero"/><path fill="#ffffff" d="M 39.175781 35.3125 C 40.511719 35.3125 41.726562 35.855469 42.601562 36.730469 C 43.476562 37.609375 44.019531 38.820312 44.019531 40.15625 C 44.019531 41.496094 43.476562 42.707031 42.601562 43.585938 C 41.726562 44.460938 40.511719 45.003906 39.175781 45.003906 C 37.835938 45.003906 36.625 44.460938 35.75 43.585938 C 34.871094 42.707031 34.332031 41.496094 34.332031 40.15625 C 34.332031 38.820312 34.871094 37.609375 35.75 36.730469 C 36.625 35.855469 37.835938 35.3125 39.175781 35.3125 Z M 41.542969 37.792969 C 40.9375 37.1875 40.101562 36.8125 39.175781 36.8125 C 38.25 36.8125 37.414062 37.1875 36.808594 37.792969 C 36.203125 38.398438 35.828125 39.234375 35.828125 40.15625 C 35.828125 41.082031 36.203125 41.917969 36.808594 42.523438 C 37.414062 43.128906 38.25 43.503906 39.175781 43.503906 C 40.101562 43.503906 40.9375 43.128906 41.542969 42.523438 C 42.148438 41.917969 42.523438 41.082031 42.523438 40.15625 C 42.523438 39.234375 42.148438 38.398438 41.542969 37.792969 Z M 41.542969 37.792969 " fill-opacity="1" fill-rule="nonzero"/><path fill="#ffffff" d="M 39.6875 56.558594 C 41.023438 56.558594 42.238281 57.101562 43.113281 57.980469 C 43.992188 58.855469 44.53125 60.066406 44.53125 61.40625 C 44.53125 62.742188 43.992188 63.957031 43.113281 64.832031 C 42.238281 65.710938 41.023438 66.25 39.6875 66.25 C 38.351562 66.25 37.136719 65.710938 36.261719 64.832031 C 35.382812 63.957031 34.84375 62.742188 34.84375 61.40625 C 34.84375 60.066406 35.382812 58.855469 36.261719 57.980469 C 37.136719 57.101562 38.351562 56.558594 39.6875 56.558594 Z M 42.054688 59.039062 C 41.449219 58.433594 40.613281 58.058594 39.6875 58.058594 C 38.761719 58.058594 37.925781 58.433594 37.320312 59.039062 C 36.714844 59.644531 36.339844 60.480469 36.339844 61.40625 C 36.339844 62.332031 36.714844 63.167969 37.320312 63.773438 C 37.925781 64.378906 38.761719 64.753906 39.6875 64.753906 C 40.613281 64.753906 41.449219 64.378906 42.054688 63.773438 C 42.660156 63.167969 43.035156 62.332031 43.035156 61.40625 C 43.035156 60.480469 42.660156 59.644531 42.054688 59.039062 Z M 42.054688 59.039062 " fill-opacity="1" fill-rule="nonzero"/><path fill="#ffffff" d="M 37.234375 65.070312 C 37.601562 64.886719 37.75 64.4375 37.5625 64.066406 C 37.378906 63.699219 36.929688 63.550781 36.558594 63.734375 C 36.394531 63.820312 36.226562 63.882812 36.050781 63.925781 C 35.886719 63.964844 35.707031 63.984375 35.515625 63.984375 L 28.472656 63.984375 C 27.835938 63.984375 27.253906 63.722656 26.835938 63.304688 L 26.304688 63.832031 L 26.835938 63.300781 C 26.824219 63.289062 26.8125 63.28125 26.800781 63.269531 C 26.398438 62.851562 26.152344 62.285156 26.152344 61.664062 C 26.152344 61.023438 26.414062 60.441406 26.832031 60.023438 L 26.304688 59.492188 L 26.835938 60.023438 C 26.847656 60.011719 26.855469 60 26.867188 59.988281 C 27.285156 59.585938 27.851562 59.339844 28.472656 59.339844 L 35.515625 59.339844 C 35.652344 59.339844 35.785156 59.351562 35.914062 59.371094 L 35.914062 59.375 L 35.933594 59.378906 C 36.0625 59.402344 36.183594 59.433594 36.296875 59.472656 C 36.683594 59.613281 37.113281 59.414062 37.253906 59.027344 C 37.394531 58.636719 37.195312 58.210938 36.804688 58.070312 C 36.605469 57.996094 36.402344 57.941406 36.199219 57.902344 L 36.171875 57.898438 L 36.042969 58.636719 L 36.167969 57.898438 C 35.953125 57.859375 35.734375 57.839844 35.515625 57.839844 L 28.472656 57.839844 C 27.449219 57.839844 26.511719 58.253906 25.824219 58.917969 C 25.804688 58.933594 25.789062 58.949219 25.773438 58.960938 L 25.777344 58.964844 L 25.773438 58.964844 C 25.082031 59.660156 24.652344 60.613281 24.652344 61.664062 C 24.652344 62.6875 25.066406 63.625 25.730469 64.3125 C 25.746094 64.332031 25.761719 64.347656 25.773438 64.363281 L 25.777344 64.359375 L 25.777344 64.363281 C 26.472656 65.054688 27.425781 65.484375 28.472656 65.484375 L 35.515625 65.484375 C 35.808594 65.484375 36.105469 65.445312 36.398438 65.375 C 36.695312 65.304688 36.972656 65.203125 37.234375 65.070312 Z M 36.71875 58.3125 C 36.78125 58.449219 36.808594 58.605469 36.78125 58.765625 C 36.734375 59.015625 36.570312 59.21875 36.355469 59.316406 Z M 36.71875 58.3125 " fill-opacity="1" fill-rule="nonzero"/><path fill="#ffffff" d="M 36.292969 43.640625 C 36.699219 43.558594 36.957031 43.160156 36.871094 42.757812 C 36.789062 42.351562 36.394531 42.09375 35.988281 42.175781 C 35.910156 42.195312 35.832031 42.207031 35.753906 42.214844 C 35.6875 42.222656 35.609375 42.222656 35.515625 42.222656 L 28.472656 42.222656 C 27.835938 42.222656 27.253906 41.964844 26.835938 41.542969 L 26.304688 42.070312 L 26.835938 41.542969 C 26.824219 41.53125 26.8125 41.519531 26.800781 41.507812 C 26.398438 41.09375 26.152344 40.523438 26.152344 39.902344 C 26.152344 39.261719 26.414062 38.679688 26.832031 38.261719 L 26.304688 37.730469 L 26.835938 38.261719 C 26.847656 38.25 26.855469 38.238281 26.867188 38.226562 C 27.285156 37.828125 27.851562 37.578125 28.472656 37.578125 L 35.515625 37.578125 C 35.652344 37.578125 35.785156 37.589844 35.914062 37.613281 C 36.050781 37.636719 36.179688 37.671875 36.296875 37.714844 C 36.6875 37.855469 37.113281 37.652344 37.253906 37.265625 C 37.394531 36.878906 37.195312 36.449219 36.808594 36.308594 C 36.597656 36.234375 36.382812 36.175781 36.171875 36.136719 C 35.957031 36.101562 35.734375 36.082031 35.515625 36.082031 L 28.472656 36.082031 C 27.449219 36.082031 26.511719 36.492188 25.824219 37.160156 C 25.804688 37.171875 25.789062 37.1875 25.773438 37.203125 L 25.777344 37.203125 L 25.773438 37.207031 C 25.082031 37.898438 24.652344 38.855469 24.652344 39.902344 C 24.652344 40.929688 25.066406 41.863281 25.730469 42.554688 C 25.746094 42.570312 25.761719 42.585938 25.773438 42.601562 L 25.777344 42.601562 C 26.472656 43.292969 27.425781 43.722656 28.472656 43.722656 L 35.515625 43.722656 C 35.632812 43.722656 35.765625 43.714844 35.90625 43.703125 C 36.039062 43.6875 36.167969 43.667969 36.292969 43.640625 Z M 36.292969 43.640625 " fill-opacity="1" fill-rule="nonzero"/><g fill="#2e2e2e" fill-opacity="1"><g transform="translate(116.669519, 71.127489)"><g><path d="M 13.796875 -7.8125 L 27.0625 -7.8125 L 27.0625 0 L 3.671875 0 L 3.671875 -41.578125 L 13.796875 -41.578125 Z M 13.796875 -7.8125 "/></g></g></g><g fill="#2e2e2e" fill-opacity="1"><g transform="translate(144.922114, 71.127489)"><g><path d="M 36.3125 -33.046875 L 36.3125 0 L 26.1875 0 L 26.1875 -4.5 C 25.15625 -3.039062 23.757812 -1.863281 22 -0.96875 C 20.25 -0.0820312 18.304688 0.359375 16.171875 0.359375 C 13.640625 0.359375 11.40625 -0.203125 9.46875 -1.328125 C 7.539062 -2.453125 6.039062 -4.082031 4.96875 -6.21875 C 3.90625 -8.351562 3.375 -10.863281 3.375 -13.75 L 3.375 -33.046875 L 13.453125 -33.046875 L 13.453125 -15.109375 C 13.453125 -12.890625 14.019531 -11.164062 15.15625 -9.9375 C 16.300781 -8.71875 17.84375 -8.109375 19.78125 -8.109375 C 21.757812 -8.109375 23.320312 -8.71875 24.46875 -9.9375 C 25.613281 -11.164062 26.1875 -12.890625 26.1875 -15.109375 L 26.1875 -33.046875 Z M 36.3125 -33.046875 "/></g></g></g><g fill="#2e2e2e" fill-opacity="1"><g transform="translate(184.842981, 71.127489)"><g><path d="M 23.21875 0 L 16.875 -9.1875 L 11.546875 0 L 0.59375 0 L 11.484375 -16.875 L 0.296875 -33.046875 L 11.671875 -33.046875 L 18 -23.9375 L 23.34375 -33.046875 L 34.296875 -33.046875 L 23.21875 -16.40625 L 34.59375 0 Z M 23.21875 0 "/></g></g></g><g fill="#2e2e2e" fill-opacity="1"><g transform="translate(219.670091, 71.127489)"><g><path d="M 34.828125 -17.0625 C 34.828125 -16.113281 34.769531 -15.125 34.65625 -14.09375 L 11.734375 -14.09375 C 11.890625 -12.039062 12.546875 -10.472656 13.703125 -9.390625 C 14.867188 -8.304688 16.300781 -7.765625 18 -7.765625 C 20.53125 -7.765625 22.289062 -8.828125 23.28125 -10.953125 L 34.0625 -10.953125 C 33.507812 -8.785156 32.507812 -6.832031 31.0625 -5.09375 C 29.625 -3.351562 27.816406 -1.988281 25.640625 -1 C 23.472656 -0.0195312 21.046875 0.46875 18.359375 0.46875 C 15.117188 0.46875 12.234375 -0.21875 9.703125 -1.59375 C 7.179688 -2.976562 5.207031 -4.953125 3.78125 -7.515625 C 2.363281 -10.085938 1.65625 -13.09375 1.65625 -16.53125 C 1.65625 -19.96875 2.351562 -22.96875 3.75 -25.53125 C 5.15625 -28.09375 7.125 -30.066406 9.65625 -31.453125 C 12.1875 -32.835938 15.085938 -33.53125 18.359375 -33.53125 C 21.554688 -33.53125 24.398438 -32.859375 26.890625 -31.515625 C 29.378906 -30.171875 31.320312 -28.253906 32.71875 -25.765625 C 34.125 -23.273438 34.828125 -20.375 34.828125 -17.0625 Z M 24.46875 -19.71875 C 24.46875 -21.457031 23.875 -22.835938 22.6875 -23.859375 C 21.5 -24.890625 20.019531 -25.40625 18.25 -25.40625 C 16.550781 -25.40625 15.117188 -24.910156 13.953125 -23.921875 C 12.785156 -22.941406 12.0625 -21.539062 11.78125 -19.71875 Z M 24.46875 -19.71875 "/></g></g></g><g fill="#2e2e2e" fill-opacity="1"><g transform="translate(256.155628, 71.127489)"><g/></g></g><g fill="#2e2e2e" fill-opacity="1"><g transform="translate(268.712345, 71.127489)"><g><path d="M 33.578125 -41.578125 L 33.578125 -33.46875 L 22.5625 -33.46875 L 22.5625 0 L 12.4375 0 L 12.4375 -33.46875 L 1.421875 -33.46875 L 1.421875 -41.578125 Z M 33.578125 -41.578125 "/></g></g></g><g fill="#2e2e2e" fill-opacity="1"><g transform="translate(303.717136, 71.127489)"><g><path d="M 1.65625 -16.578125 C 1.65625 -19.984375 2.296875 -22.96875 3.578125 -25.53125 C 4.867188 -28.09375 6.617188 -30.066406 8.828125 -31.453125 C 11.035156 -32.835938 13.503906 -33.53125 16.234375 -33.53125 C 18.554688 -33.53125 20.597656 -33.054688 22.359375 -32.109375 C 24.117188 -31.160156 25.472656 -29.914062 26.421875 -28.375 L 26.421875 -33.046875 L 36.546875 -33.046875 L 36.546875 0 L 26.421875 0 L 26.421875 -4.671875 C 25.429688 -3.140625 24.054688 -1.898438 22.296875 -0.953125 C 20.546875 -0.00390625 18.503906 0.46875 16.171875 0.46875 C 13.484375 0.46875 11.035156 -0.226562 8.828125 -1.625 C 6.617188 -3.03125 4.867188 -5.023438 3.578125 -7.609375 C 2.296875 -10.191406 1.65625 -13.179688 1.65625 -16.578125 Z M 26.421875 -16.53125 C 26.421875 -19.050781 25.71875 -21.039062 24.3125 -22.5 C 22.914062 -23.96875 21.207031 -24.703125 19.1875 -24.703125 C 17.175781 -24.703125 15.46875 -23.976562 14.0625 -22.53125 C 12.664062 -21.09375 11.96875 -19.109375 11.96875 -16.578125 C 11.96875 -14.054688 12.664062 -12.054688 14.0625 -10.578125 C 15.46875 -9.097656 17.175781 -8.359375 19.1875 -8.359375 C 21.207031 -8.359375 22.914062 -9.085938 24.3125 -10.546875 C 25.71875 -12.003906 26.421875 -14 26.421875 -16.53125 Z M 26.421875 -16.53125 "/></g></g></g><g fill="#2e2e2e" fill-opacity="1"><g transform="translate(343.934136, 71.127489)"><g><path d="M 17.125 0.46875 C 14.238281 0.46875 11.671875 -0.0195312 9.421875 -1 C 7.171875 -1.988281 5.390625 -3.34375 4.078125 -5.0625 C 2.773438 -6.78125 2.046875 -8.707031 1.890625 -10.84375 L 11.90625 -10.84375 C 12.019531 -9.695312 12.550781 -8.765625 13.5 -8.046875 C 14.445312 -7.335938 15.613281 -6.984375 17 -6.984375 C 18.257812 -6.984375 19.234375 -7.226562 19.921875 -7.71875 C 20.617188 -8.21875 20.96875 -8.863281 20.96875 -9.65625 C 20.96875 -10.601562 20.472656 -11.300781 19.484375 -11.75 C 18.492188 -12.207031 16.894531 -12.710938 14.6875 -13.265625 C 12.320312 -13.816406 10.347656 -14.398438 8.765625 -15.015625 C 7.179688 -15.628906 5.816406 -16.597656 4.671875 -17.921875 C 3.535156 -19.242188 2.96875 -21.03125 2.96875 -23.28125 C 2.96875 -25.175781 3.488281 -26.898438 4.53125 -28.453125 C 5.570312 -30.015625 7.109375 -31.25 9.140625 -32.15625 C 11.179688 -33.070312 13.601562 -33.53125 16.40625 -33.53125 C 20.550781 -33.53125 23.816406 -32.5 26.203125 -30.4375 C 28.597656 -28.382812 29.972656 -25.660156 30.328125 -22.265625 L 20.96875 -22.265625 C 20.8125 -23.410156 20.304688 -24.316406 19.453125 -24.984375 C 18.609375 -25.660156 17.492188 -26 16.109375 -26 C 14.921875 -26 14.007812 -25.769531 13.375 -25.3125 C 12.75 -24.863281 12.4375 -24.242188 12.4375 -23.453125 C 12.4375 -22.503906 12.9375 -21.789062 13.9375 -21.3125 C 14.945312 -20.84375 16.519531 -20.375 18.65625 -19.90625 C 21.101562 -19.269531 23.097656 -18.644531 24.640625 -18.03125 C 26.179688 -17.425781 27.535156 -16.441406 28.703125 -15.078125 C 29.867188 -13.710938 30.46875 -11.882812 30.5 -9.59375 C 30.5 -7.65625 29.957031 -5.925781 28.875 -4.40625 C 27.789062 -2.882812 26.226562 -1.691406 24.1875 -0.828125 C 22.15625 0.0351562 19.800781 0.46875 17.125 0.46875 Z M 17.125 0.46875 "/></g></g></g><g fill="#2e2e2e" fill-opacity="1"><g transform="translate(376.984344, 71.127489)"><g><path d="M 23.875 0 L 13.796875 -13.859375 L 13.796875 0 L 3.671875 0 L 3.671875 -43.828125 L 13.796875 -43.828125 L 13.796875 -19.609375 L 23.8125 -33.046875 L 36.3125 -33.046875 L 22.5625 -16.46875 L 36.421875 0 Z M 23.875 0 "/></g></g></g></svg>